<?xml version="1.0" standalone="no"?>
<svg xmlns="http://www.w3.org/2000/svg" version="1.2" baseProfile="tiny" width="256" height="256" viewBox="0 0 256 256">
<rect x="0" y="0" width="256" height="256" id="0" fill="rgb(36,50,132)" fill-opacity="1" />
<polygon points="84,196 210,128 167,219" id="1" fill="rgb(255,255,255)" fill-opacity="0.501961" />
<polygon points="17,18 208,18 0,102" id="2" fill="rgb(89,153,255)" fill-opacity="0.501961" />
<polygon points="256,160 256,0 166,0" id="3" fill="rgb(0,0,0)" fill-opacity="0.501961" />
<rect x="26" y="226" width="229" height="29" id="4" fill="rgb(0,0,0)" fill-opacity="0.501961" />
<rect x="189" y="59" width="23" height="78" id="5" fill="rgb(178,255,255)" fill-opacity="0.501961" />
<polygon points="117,192 77,197 70,144 110,139" id="6" fill="rgb(120,255,255)" fill-opacity="0.501961"/>
<rect x="8" y="0" width="57" height="38" id="7" fill="rgb(209,71,0)" fill-opacity="0.501961" />
<polygon points="147,92 47,87 50,32 150,37" id="8" fill="rgb(0,0,238)" fill-opacity="0.501961"/>
<rect x="130" y="177" width="61" height="27" id="9" fill="rgb(234,255,255)" fill-opacity="0.501961" />
<polygon points="2,159 -13,149 42,61 58,72" id="10" fill="rgb(0,0,255)" fill-opacity="0.501961"/>
<rect x="0" y="169" width="61" height="75" id="11" fill="rgb(0,0,54)" fill-opacity="0.501961" />
<rect x="106" y="105" width="56" height="74" id="12" fill="rgb(0,3,187)" fill-opacity="0.501961" />
<polygon points="138,22 83,21 84,13 139,14" id="13" fill="rgb(251,255,255)" fill-opacity="0.501961"/>
<polygon points="104,0 67,21 51,0" id="14" fill="rgb(255,40,0)" fill-opacity="0.501961" />
<polygon points="10,73 1,141 0,61" id="15" fill="rgb(255,255,255)" fill-opacity="0.501961" />
<rect x="217" y="122" width="38" height="97" id="16" fill="rgb(0,0,46)" fill-opacity="0.501961" />
<polygon points="165,55 140,26 155,13 180,43" id="17" fill="rgb(189,231,255)" fill-opacity="0.501961"/>
<rect x="170" y="96" width="28" height="42" id="18" fill="rgb(0,0,255)" fill-opacity="0.501961" />
<rect x="174" y="4" width="81" height="60" id="19" fill="rgb(4,0,3)" fill-opacity="0.501961" />
<rect x="185" y="55" width="19" height="31" id="20" fill="rgb(220,247,255)" fill-opacity="0.501961" />
<rect x="113" y="0" width="58" height="14" id="21" fill="rgb(4,0,0)" fill-opacity="0.501961" />
<polygon points="190,15 194,24 171,36 167,27" id="22" fill="rgb(245,253,255)" fill-opacity="0.501961"/>
<rect x="0" y="126" width="25" height="68" id="23" fill="rgb(0,0,239)" fill-opacity="0.501961" />
<polygon points="17,113 103,60 127,98 41,152" id="24" fill="rgb(0,0,104)" fill-opacity="0.501961"/>
<polygon points="119,188 150,170 169,203 138,220" id="25" fill="rgb(246,255,255)" fill-opacity="0.501961"/>
<polygon points="25,132 98,256 13,216" id="26" fill="rgb(0,0,29)" fill-opacity="0.501961" />
<polygon points="16,30 53,21 57,35 20,44" id="27" fill="rgb(255,207,64)" fill-opacity="0.501961"/>
<polygon points="50,184 115,232 53,146" id="28" fill="rgb(0,49,255)" fill-opacity="0.501961" />
<rect x="96" y="170" width="23" height="28" id="29" fill="rgb(234,255,246)" fill-opacity="0.501961" />
<polygon points="190,58 83,68 117,19" id="30" fill="rgb(0,48,240)" fill-opacity="0.501961" />
<polygon points="-4,52 -2,34 23,37 21,55" id="31" fill="rgb(12,0,0)" fill-opacity="0.501961"/>
<rect x="194" y="223" width="61" height="32" id="32" fill="rgb(0,0,0)" fill-opacity="0.501961" />
<polygon points="194,97 166,101 163,76 191,72" id="33" fill="rgb(0,89,255)" fill-opacity="0.501961"/>
<polygon points="185,145 216,132 142,207" id="34" fill="rgb(248,255,255)" fill-opacity="0.501961" />
<polygon points="170,73 241,19 168,52" id="35" fill="rgb(0,0,0)" fill-opacity="0.501961" />
<rect x="218" y="107" width="24" height="42" id="36" fill="rgb(0,0,0)" fill-opacity="0.501961" />
<polygon points="128,13 18,63 64,23" id="37" fill="rgb(25,183,255)" fill-opacity="0.501961" />
<polygon points="127,205 164,220 154,242 117,227" id="38" fill="rgb(9,28,216)" fill-opacity="0.501961"/>
<rect x="180" y="173" width="33" height="20" id="39" fill="rgb(0,14,231)" fill-opacity="0.501961" />
<rect x="51" y="21" width="28" height="5" id="40" fill="rgb(223,255,255)" fill-opacity="0.501961" />
<polygon points="213,91 186,64 207,123" id="41" fill="rgb(202,255,255)" fill-opacity="0.501961" />
<polygon points="147,171 130,147 160,125 178,150" id="42" fill="rgb(0,0,168)" fill-opacity="0.501961"/>
<polygon points="129,246 223,226 228,245 134,265" id="43" fill="rgb(0,0,0)" fill-opacity="0.501961"/>
<polygon points="207,80 229,48 266,75 243,106" id="44" fill="rgb(0,0,1)" fill-opacity="0.501961"/>
<rect x="16" y="0" width="35" height="19" id="45" fill="rgb(35,0,14)" fill-opacity="0.501961" />
<polygon points="115,217 106,200 126,191 134,208" id="46" fill="rgb(188,225,255)" fill-opacity="0.501961"/>
<polygon points="185,56 143,117 123,81" id="47" fill="rgb(20,20,41)" fill-opacity="0.501961" />
<rect x="47" y="213" width="40" height="33" id="48" fill="rgb(0,0,0)" fill-opacity="0.501961" />
<polygon points="97,10 170,0 86,0" id="49" fill="rgb(20,0,0)" fill-opacity="0.501961" />
<rect x="186" y="93" width="45" height="13" id="50" fill="rgb(27,148,236)" fill-opacity="0.501961" />
<polygon points="76,174 86,201 59,211 48,185" id="51" fill="rgb(0,46,185)" fill-opacity="0.501961"/>
<polygon points="211,217 256,112 256,130" id="52" fill="rgb(84,94,189)" fill-opacity="0.501961" />
<polygon points="25,35 36,44 29,53 18,44" id="53" fill="rgb(255,255,228)" fill-opacity="0.501961"/>
<polyline points="255,255 108,255 255,255 117,255" id="54" stroke="rgb(0,0,0)" stroke-width="1" fill="none" stroke-opacity="0.501961" />
<rect x="166" y="7" width="12" height="18" id="55" fill="rgb(0,0,0)" fill-opacity="0.501961" />
<polygon points="43,67 53,80 14,113 3,100" id="56" fill="rgb(0,5,255)" fill-opacity="0.501961"/>
<rect x="80" y="223" width="19" height="8" id="57" fill="rgb(0,54,255)" fill-opacity="0.501961" />
<polygon points="203,111 208,111 199,170 194,169" id="58" fill="rgb(255,252,242)" fill-opacity="0.501961"/>
<polygon points="-1,89 -9,82 13,54 21,61" id="59" fill="rgb(255,255,233)" fill-opacity="0.501961"/>
<polygon points="151,26 146,34 122,17 128,10" id="60" fill="rgb(241,255,255)" fill-opacity="0.501961"/>
<polygon points="51,201 117,55 17,117" id="61" fill="rgb(0,0,119)" fill-opacity="0.501961" />
<polygon points="116,16 175,53 13,75" id="62" fill="rgb(0,57,253)" fill-opacity="0.501961" />
<polygon points="108,170 102,182 79,171 85,159" id="63" fill="rgb(171,255,255)" fill-opacity="0.501961"/>
<polygon points="233,132 234,165 208,166 207,133" id="64" fill="rgb(0,0,42)" fill-opacity="0.501961"/>
<polygon points="171,60 180,36 146,75" id="65" fill="rgb(154,174,230)" fill-opacity="0.501961" />
<polygon points="86,16 96,0 43,3" id="66" fill="rgb(248,70,9)" fill-opacity="0.501961" />
<polygon points="0,256 3,221 37,220" id="67" fill="rgb(0,8,210)" fill-opacity="0.501961" />
<polygon points="12,114 0,93 0,136" id="68" fill="rgb(96,227,227)" fill-opacity="0.501961" />
<polygon points="76,163 62,199 38,189 53,154" id="69" fill="rgb(0,47,214)" fill-opacity="0.501961"/>
<polygon points="114,139 105,164 80,155 90,130" id="70" fill="rgb(17,160,218)" fill-opacity="0.501961"/>
<rect x="95" y="11" width="42" height="7" id="71" fill="rgb(181,190,255)" fill-opacity="0.501961" />
<polygon points="115,228 138,256 60,247" id="72" fill="rgb(32,0,0)" fill-opacity="0.501961" />
<polygon points="197,198 159,238 167,203" id="73" fill="rgb(59,18,135)" fill-opacity="0.501961" />
<rect x="163" y="85" width="14" height="64" id="74" fill="rgb(0,0,183)" fill-opacity="0.501961" />
<rect x="0" y="0" width="25" height="27" id="75" fill="rgb(104,3,130)" fill-opacity="0.501961" />
<polygon points="151,-1 162,4 151,22 141,16" id="76" fill="rgb(0,0,0)" fill-opacity="0.501961"/>
<polygon points="217,86 228,74 193,47" id="77" fill="rgb(0,0,166)" fill-opacity="0.501961" />
<polygon points="93,195 92,228 168,248" id="78" fill="rgb(0,5,183)" fill-opacity="0.501961" />
<polygon points="185,148 162,159 199,162" id="79" fill="rgb(255,255,250)" fill-opacity="0.501961" />
<polygon points="175,225 243,228 256,182" id="80" fill="rgb(0,0,117)" fill-opacity="0.501961" />
<polygon points="226,64 167,35 226,18" id="81" fill="rgb(0,0,0)" fill-opacity="0.501961" />
<polygon points="146,29 185,31 191,24" id="82" fill="rgb(249,255,255)" fill-opacity="0.501961" />
<rect x="168" y="53" width="22" height="12" id="83" fill="rgb(0,0,0)" fill-opacity="0.501961" />
<rect x="28" y="10" width="57" height="7" id="84" fill="rgb(36,0,0)" fill-opacity="0.501961" />
<polygon points="185,93 201,147 151,118" id="85" fill="rgb(0,17,212)" fill-opacity="0.501961" />
<polygon points="74,24 0,109 97,62" id="86" fill="rgb(0,24,243)" fill-opacity="0.501961" />
<polygon points="194,208 211,194 216,200 198,214" id="87" fill="rgb(90,176,255)" fill-opacity="0.501961"/>
<polygon points="42,119 47,217 0,222" id="88" fill="rgb(0,0,42)" fill-opacity="0.501961" />
<polygon points="0,183 30,147 17,93" id="89" fill="rgb(0,0,244)" fill-opacity="0.501961" />
<polygon points="114,138 157,56 56,113" id="90" fill="rgb(0,19,167)" fill-opacity="0.501961" />
<rect x="55" y="19" width="29" height="5" id="91" fill="rgb(255,255,255)" fill-opacity="0.501961" />
<rect x="98" y="159" width="70" height="8" id="92" fill="rgb(4,0,187)" fill-opacity="0.501961" />
<rect x="193" y="57" width="7" height="40" id="93" fill="rgb(255,255,255)" fill-opacity="0.501961" />
<polygon points="185,168 136,202 139,220" id="94" fill="rgb(255,255,247)" fill-opacity="0.501961" />
<polygon points="103,178 145,183 128,163" id="95" fill="rgb(62,167,177)" fill-opacity="0.501961" />
<polygon points="256,79 222,107 209,163" id="96" fill="rgb(0,0,0)" fill-opacity="0.501961" />
<rect x="127" y="141" width="30" height="7" id="97" fill="rgb(0,0,0)" fill-opacity="0.501961" />
<polyline points="113,255 0,255 121,255 0,255" id="98" stroke="rgb(0,0,27)" stroke-width="1" fill="none" stroke-opacity="0.501961" />
<polygon points="5,63 26,31 0,43" id="99" fill="rgb(4,0,0)" fill-opacity="0.501961" />
<polygon points="10,79 0,59 0,105" id="100" fill="rgb(255,255,226)" fill-opacity="0.501961" />
<polygon points="208,20 82,0 214,0" id="101" fill="rgb(0,0,0)" fill-opacity="0.501961" />
<polygon points="235,178 252,105 252,132" id="102" fill="rgb(90,94,236)" fill-opacity="0.501961" />
<polyline points="255,0 255,255 255,0 255,249" id="103" stroke="rgb(0,0,0)" stroke-width="1" fill="none" stroke-opacity="0.501961" />
<rect x="28" y="19" width="13" height="22" id="104" fill="rgb(255,216,85)" fill-opacity="0.501961" />
<polygon points="151,39 147,45 136,36 140,30" id="105" fill="rgb(19,11,0)" fill-opacity="0.501961"/>
<polygon points="30,73 20,90 16,88 26,70" id="106" fill="rgb(118,255,255)" fill-opacity="0.501961"/>
<rect x="157" y="13" width="6" height="27" id="107" fill="rgb(247,255,255)" fill-opacity="0.501961" />
<polygon points="200,124 188,79 158,74" id="108" fill="rgb(0,82,255)" fill-opacity="0.501961" />
<polygon points="88,15 119,13 69,25" id="109" fill="rgb(255,255,235)" fill-opacity="0.501961" />
<rect x="85" y="66" width="34" height="5" id="110" fill="rgb(0,0,0)" fill-opacity="0.501961" />
<polygon points="141,202 160,182 81,195" id="111" fill="rgb(255,255,249)" fill-opacity="0.501961" />
<polygon points="80,208 0,234 95,222" id="112" fill="rgb(0,0,1)" fill-opacity="0.501961" />
<polygon points="186,37 168,34 169,30 187,33" id="113" fill="rgb(0,0,0)" fill-opacity="0.501961"/>
<polygon points="37,24 56,25 55,35 36,34" id="114" fill="rgb(204,50,0)" fill-opacity="0.501961"/>
<polygon points="97,8 146,11 139,16" id="115" fill="rgb(30,6,241)" fill-opacity="0.501961" />
<rect x="14" y="149" width="10" height="55" id="116" fill="rgb(0,0,155)" fill-opacity="0.501961" />
<rect x="97" y="51" width="25" height="5" id="117" fill="rgb(0,255,245)" fill-opacity="0.501961" />
<rect x="128" y="208" width="8" height="33" id="118" fill="rgb(0,0,69)" fill-opacity="0.501961" />
<rect x="65" y="179" width="19" height="10" id="119" fill="rgb(0,18,78)" fill-opacity="0.501961" />
<polygon points="0,19 27,30 8,37" id="120" fill="rgb(231,114,194)" fill-opacity="0.501961" />
<polygon points="132,99 160,89 163,98 135,108" id="121" fill="rgb(4,0,0)" fill-opacity="0.501961"/>
<polygon points="98,169 98,154 62,154" id="122" fill="rgb(71,252,255)" fill-opacity="0.501961" />
<polygon points="172,153 186,137 133,160" id="123" fill="rgb(0,22,255)" fill-opacity="0.501961" />
<polyline points="172,0 24,0 59,0 20,0" id="124" stroke="rgb(0,0,0)" stroke-width="1" fill="none" stroke-opacity="0.501961" />
<rect x="0" y="247" width="82" height="7" id="125" fill="rgb(0,6,168)" fill-opacity="0.501961" />
<polygon points="90,241 161,256 256,243" id="126" fill="rgb(0,0,0)" fill-opacity="0.501961" />
<polygon points="178,72 216,91 186,62" id="127" fill="rgb(193,230,255)" fill-opacity="0.501961" />
<polygon points="186,206 158,194 169,154" id="128" fill="rgb(199,225,255)" fill-opacity="0.501961" />
<polygon points="135,74 153,89 150,93 132,78" id="129" fill="rgb(73,100,255)" fill-opacity="0.501961"/>
<polygon points="174,162 140,174 122,156" id="130" fill="rgb(0,0,185)" fill-opacity="0.501961" />
<polygon points="120,207 116,201 121,198 125,204" id="131" fill="rgb(0,9,176)" fill-opacity="0.501961"/>
<polygon points="14,231 52,234 4,236" id="132" fill="rgb(0,51,255)" fill-opacity="0.501961" />
<polygon points="18,64 0,114 45,34" id="133" fill="rgb(0,111,247)" fill-opacity="0.501961" />
<polygon points="144,211 143,229 196,226" id="134" fill="rgb(7,49,210)" fill-opacity="0.501961" />
<polygon points="21,130 46,99 104,77" id="135" fill="rgb(0,0,57)" fill-opacity="0.501961" />
<polygon points="212,232 201,216 212,208 223,225" id="136" fill="rgb(0,0,0)" fill-opacity="0.501961"/>
<polygon points="30,57 36,56 37,64 31,65" id="137" fill="rgb(209,255,172)" fill-opacity="0.501961"/>
<polygon points="142,21 180,43 121,23" id="138" fill="rgb(160,255,255)" fill-opacity="0.501961" />
<polygon points="243,199 246,203 222,220 219,216" id="139" fill="rgb(12,67,233)" fill-opacity="0.501961"/>
<polygon points="85,36 154,68 173,42" id="140" fill="rgb(0,35,254)" fill-opacity="0.501961" />
<polygon points="91,166 96,170 65,171" id="141" fill="rgb(255,255,255)" fill-opacity="0.501961" />
<polygon points="233,178 235,181 222,189 220,186" id="142" fill="rgb(190,209,211)" fill-opacity="0.501961"/>
</svg>